<svg xmlns="http://www.w3.org/2000/svg" viewBox="0 0 1200 630" role="img" aria-label="Introducing Hodget">
  <defs>
    <linearGradient id="bg" x1="0" y1="0" x2="1" y2="1">
      <stop offset="0" stop-color="#0a0a0a"/>
      <stop offset="1" stop-color="#1c1c1f"/>
    </linearGradient>
    <linearGradient id="fill" x1="0" y1="0" x2="0" y2="1">
      <stop offset="0" stop-color="#fafafa" stop-opacity="0.14"/>
      <stop offset="1" stop-color="#fafafa" stop-opacity="0"/>
    </linearGradient>
  </defs>
  <rect width="1200" height="630" fill="url(#bg)"/>
  <g stroke="#fafafa" stroke-opacity="0.07">
    <path d="M0 157.5H1200M0 315H1200M0 472.5H1200"/>
    <path d="M300 0V630M600 0V630M900 0V630"/>
  </g>
  <path d="M80 470 L200 430 L320 445 L440 380 L560 395 L680 330 L800 300 L920 320 L1040 235 L1120 210 L1120 630 L80 630 Z" fill="url(#fill)"/>
  <path d="M80 470 L200 430 L320 445 L440 380 L560 395 L680 330 L800 300 L920 320 L1040 235 L1120 210" fill="none" stroke="#fafafa" stroke-width="3" stroke-linecap="round" stroke-linejoin="round"/>
  <circle cx="1040" cy="235" r="6" fill="#fafafa"/>
  <text x="80" y="120" font-family="Geist, Inter, system-ui, sans-serif" font-size="58" font-weight="800" letter-spacing="-1.5" fill="#fafafa">Introducing Hodget</text>
  <text x="80" y="168" font-family="Geist, Inter, system-ui, sans-serif" font-size="26" fill="#fafafa" fill-opacity="0.6">An AI hedge fund engine you can read end to end</text>
</svg>
